<svg width="42" height="52" viewBox="0 0 42 52" fill="none" xmlns="http://www.w3.org/2000/svg">
<path d="M29.3668 13.0196C29.3668 13.5009 29.334 13.9821 29.2738 14.4579C29.3012 14.2665 29.3285 14.0696 29.3504 13.8782C29.2191 14.8298 28.9676 15.754 28.6012 16.6399C28.6723 16.4649 28.7488 16.2899 28.8199 16.1149C28.4535 16.979 27.9832 17.7884 27.409 18.5321C27.5238 18.3845 27.6387 18.2368 27.7535 18.0892C27.1848 18.822 26.523 19.4837 25.7902 20.0524C25.9379 19.9376 26.0855 19.8228 26.2332 19.7079C25.4894 20.2767 24.6801 20.7524 23.816 21.1188C23.991 21.0478 24.166 20.9712 24.341 20.9001C23.4551 21.2665 22.5308 21.5181 21.5793 21.6493C21.7707 21.622 21.9676 21.5946 22.159 21.5728C21.2019 21.6985 20.2394 21.6985 19.2824 21.5728C19.4738 21.6001 19.6707 21.6274 19.8621 21.6493C18.9105 21.5181 17.9863 21.2665 17.1004 20.9001C17.2754 20.9712 17.4504 21.0478 17.6254 21.1188C16.7613 20.7524 15.9519 20.2821 15.2082 19.7079C15.3558 19.8228 15.5035 19.9376 15.6511 20.0524C14.9183 19.4837 14.2566 18.822 13.6879 18.0892C13.8027 18.2368 13.9176 18.3845 14.0324 18.5321C13.4636 17.7884 12.9879 16.979 12.6215 16.1149C12.6926 16.2899 12.7691 16.4649 12.8402 16.6399C12.4738 15.754 12.2222 14.8298 12.091 13.8782C12.1183 14.0696 12.1457 14.2665 12.1676 14.4579C12.0418 13.5009 12.0418 12.5384 12.1676 11.5813C12.1402 11.7728 12.1129 11.9696 12.091 12.161C12.2222 11.2095 12.4738 10.2853 12.8402 9.39932C12.7691 9.57432 12.6926 9.74932 12.6215 9.92432C12.9879 9.06026 13.4582 8.25088 14.0324 7.50713C13.9176 7.65479 13.8027 7.80244 13.6879 7.9501C14.2566 7.21729 14.9183 6.55557 15.6511 5.98682C15.5035 6.10166 15.3558 6.21651 15.2082 6.33135C15.9519 5.7626 16.7613 5.28682 17.6254 4.92041C17.4504 4.99151 17.2754 5.06807 17.1004 5.13916C17.9863 4.77276 18.9105 4.52119 19.8621 4.38994C19.6707 4.41729 19.4738 4.44463 19.2824 4.4665C20.2394 4.34072 21.2019 4.34072 22.159 4.4665C21.9676 4.43916 21.7707 4.41182 21.5793 4.38994C22.5308 4.52119 23.4551 4.77276 24.341 5.13916C24.166 5.06807 23.991 4.99151 23.816 4.92041C24.6801 5.28682 25.4894 5.75713 26.2332 6.33135C26.0855 6.21651 25.9379 6.10166 25.7902 5.98682C26.523 6.55557 27.1848 7.21729 27.7535 7.9501C27.6387 7.80244 27.5238 7.65479 27.409 7.50713C27.9777 8.25088 28.4535 9.06026 28.8199 9.92432C28.7488 9.74932 28.6723 9.57432 28.6012 9.39932C28.9676 10.2853 29.2191 11.2095 29.3504 12.161C29.323 11.9696 29.2957 11.7728 29.2738 11.5813C29.334 12.0571 29.3613 12.5384 29.3668 13.0196C29.3723 14.1626 30.3676 15.2618 31.5543 15.2071C32.7355 15.1524 33.7473 14.2446 33.7418 13.0196C33.7308 10.4001 32.9433 7.72041 31.4012 5.5876C30.9855 5.01338 30.5426 4.4501 30.0504 3.94151C29.5527 3.42744 29.0058 2.98447 28.4371 2.55244C27.4035 1.76494 26.2496 1.18525 25.0246 0.736817C20.0863 -1.07334 14.1308 0.539942 10.7894 4.60869C10.3301 5.1665 9.89255 5.74619 9.52068 6.36963C9.1488 6.9876 8.85896 7.64385 8.59099 8.31104C8.08786 9.54697 7.83083 10.8595 7.72692 12.1884C7.52458 14.7915 8.2027 17.5095 9.55896 19.7407C10.866 21.8954 12.8402 23.7438 15.148 24.7884C15.8261 25.0946 16.5207 25.379 17.2426 25.5813C17.959 25.7782 18.6863 25.8876 19.4246 25.9751C20.7699 26.1337 22.1426 26.0243 23.4715 25.7563C28.5191 24.7282 32.7465 20.3806 33.5285 15.2782C33.6434 14.5345 33.7309 13.7907 33.7309 13.036C33.7363 11.8931 32.7191 10.7938 31.5434 10.8485C30.3621 10.8868 29.3668 11.7946 29.3668 13.0196ZM36.6238 47.2157C35.5519 47.2157 34.4801 47.2157 33.4082 47.2157C30.8543 47.2157 28.3058 47.2157 25.7519 47.2157C22.6785 47.2157 19.6051 47.2157 16.5261 47.2157C13.8738 47.2157 11.2215 47.2157 8.56364 47.2157C7.32224 47.2157 6.08083 47.2267 4.83942 47.2157C4.7027 47.2157 4.56598 47.2048 4.43473 47.1884C4.62614 47.2157 4.82301 47.2431 5.01442 47.2649C4.79567 47.2321 4.58786 47.172 4.38551 47.0899C4.56051 47.161 4.73551 47.2376 4.91051 47.3087C4.69176 47.2157 4.48942 47.0954 4.29801 46.9478C4.44567 47.0626 4.59333 47.1774 4.74098 47.2923C4.57692 47.1556 4.4238 47.0079 4.29254 46.8438C4.40739 46.9915 4.52223 47.1392 4.63708 47.2868C4.48942 47.0954 4.37458 46.8931 4.27614 46.6743C4.34723 46.8493 4.42379 47.0243 4.49489 47.1993C4.41286 46.997 4.35817 46.7837 4.31989 46.5704C4.34723 46.7618 4.37458 46.9587 4.39645 47.1501C4.30895 46.4884 4.36911 45.7884 4.36911 45.1212C4.36911 44.3392 4.36911 43.5626 4.36911 42.7806C4.36911 42.1954 4.40192 41.6157 4.47848 41.036C4.45114 41.2274 4.4238 41.4243 4.40192 41.6157C4.55505 40.4946 4.85036 39.3954 5.29333 38.3509C5.22223 38.5259 5.14567 38.7009 5.07458 38.8759C5.50114 37.8806 6.04802 36.9454 6.70973 36.0868C6.59489 36.2345 6.48005 36.3821 6.3652 36.5298C7.02692 35.6821 7.78708 34.9165 8.64021 34.2548C8.49255 34.3696 8.34489 34.4845 8.19724 34.5993C9.05583 33.9376 9.99099 33.3907 10.9863 32.9642C10.8113 33.0353 10.6363 33.1118 10.4613 33.1829C11.5058 32.7454 12.5996 32.4446 13.7261 32.2915C13.5347 32.3188 13.3379 32.3462 13.1465 32.3681C13.9558 32.2642 14.7597 32.2587 15.5746 32.2587C16.5754 32.2587 17.5761 32.2587 18.5769 32.2587C20.9121 32.2587 23.2473 32.2587 25.5824 32.2587C26.4848 32.2587 27.3816 32.2532 28.284 32.3681C28.0926 32.3407 27.8957 32.3134 27.7043 32.2915C28.8254 32.4446 29.9246 32.7399 30.9691 33.1829C30.7941 33.1118 30.6191 33.0353 30.4441 32.9642C31.4394 33.3907 32.3746 33.9376 33.2332 34.5993C33.0855 34.4845 32.9379 34.3696 32.7902 34.2548C33.6379 34.9165 34.4035 35.6767 35.0652 36.5298C34.9504 36.3821 34.8355 36.2345 34.7207 36.0868C35.3824 36.9454 35.9293 37.8806 36.3559 38.8759C36.2848 38.7009 36.2082 38.5259 36.1371 38.3509C36.5746 39.3954 36.8754 40.4892 37.0285 41.6157C37.0012 41.4243 36.9738 41.2274 36.9519 41.036C37.0559 41.8618 37.0613 42.6821 37.0613 43.5134C37.0613 44.4157 37.0613 45.3181 37.0613 46.2204C37.0613 46.5321 37.0723 46.8438 37.034 47.1501C37.0613 46.9587 37.0887 46.7618 37.1105 46.5704C37.0777 46.7892 37.0176 46.997 36.9355 47.1993C37.0066 47.0243 37.0832 46.8493 37.1543 46.6743C37.0613 46.8931 36.941 47.0954 36.7934 47.2868C36.9082 47.1392 37.023 46.9915 37.1379 46.8438C37.0012 47.0079 36.8535 47.161 36.6894 47.2923C36.8371 47.1774 36.9848 47.0626 37.1324 46.9478C36.941 47.0954 36.7387 47.2103 36.5199 47.3087C36.6949 47.2376 36.8699 47.161 37.0449 47.0899C36.8426 47.172 36.6293 47.2267 36.416 47.2649C36.6074 47.2376 36.8043 47.2103 36.9957 47.1884C36.8754 47.2048 36.7496 47.2103 36.6238 47.2157C36.0605 47.2212 35.4809 47.4563 35.0762 47.8556C34.6988 48.2329 34.409 48.8563 34.4363 49.4032C34.491 50.5735 35.3988 51.6071 36.6238 51.5907C38.7512 51.5579 40.6215 50.1688 41.2449 48.129C41.491 47.3196 41.4363 46.4501 41.4363 45.6188C41.4363 43.7157 41.4965 41.829 41.1684 39.9423C40.6871 37.1806 39.298 34.5829 37.3949 32.5431C35.4918 30.5032 32.9324 29.0048 30.2254 28.3376C28.6723 27.9548 27.1082 27.8946 25.5223 27.8946C23.8926 27.8946 22.2683 27.8946 20.6387 27.8946C19.0308 27.8946 17.4285 27.8946 15.8207 27.8946C14.1965 27.8946 12.5832 27.9712 11.0027 28.3923C8.31755 29.1032 5.79098 30.6181 3.92614 32.6743C2.04489 34.747 0.683167 37.3501 0.240197 40.1282C-0.0551154 41.9931 0.00504077 43.8634 0.00504077 45.7446C0.00504077 46.6087 -0.0441778 47.511 0.267541 48.3368C0.672229 49.3978 1.31754 50.2345 2.26364 50.8634C3.00192 51.3501 3.93708 51.5853 4.81208 51.5962C5.23864 51.6017 5.6652 51.5962 6.09176 51.5962C7.18552 51.5962 8.2738 51.5962 9.36755 51.5962C10.9207 51.5962 12.4683 51.5962 14.0215 51.5962C15.8261 51.5962 17.6308 51.5962 19.4355 51.5962C21.2894 51.5962 23.1379 51.5962 24.9918 51.5962C26.6871 51.5962 28.3769 51.5962 30.0723 51.5962C31.4012 51.5962 32.7301 51.5962 34.0535 51.5962C34.8137 51.5962 35.5738 51.5962 36.334 51.5962C36.4324 51.5962 36.5309 51.5962 36.6293 51.5962C37.7723 51.5962 38.8715 50.5899 38.8168 49.4087C38.7621 48.2165 37.8543 47.2157 36.6238 47.2157Z" fill="white"/>
</svg>
