<svg width="42" height="47" viewBox="0 0 42 47" fill="none" xmlns="http://www.w3.org/2000/svg">
<path d="M39.6669 14.0558L25.6669 1.78251C24.3835 0.634613 22.7221 0 21.0002 0C19.2784 0 17.6169 0.634613 16.3336 1.78251L2.33355 14.0558C1.59241 14.7187 1.00099 15.5318 0.598656 16.4411C0.196323 17.3503 -0.00768264 18.3349 0.000221186 19.3292V39.7225C0.000221186 41.579 0.737719 43.3595 2.05047 44.6723C3.36323 45.985 5.14371 46.7225 7.00022 46.7225H35.0002C36.8567 46.7225 38.6372 45.985 39.95 44.6723C41.2627 43.3595 42.0002 41.579 42.0002 39.7225V19.3058C42.0048 18.3155 41.7992 17.3354 41.397 16.4304C40.9948 15.5254 40.4051 14.7161 39.6669 14.0558ZM25.6669 42.0558H16.3336V30.3892C16.3336 29.7703 16.5794 29.1768 17.017 28.7393C17.4546 28.3017 18.048 28.0558 18.6669 28.0558H23.3336C23.9524 28.0558 24.5459 28.3017 24.9835 28.7393C25.4211 29.1768 25.6669 29.7703 25.6669 30.3892V42.0558ZM37.3336 39.7225C37.3336 40.3413 37.0877 40.9348 36.6501 41.3724C36.2126 41.81 35.6191 42.0558 35.0002 42.0558H30.3336V30.3892C30.3336 28.5327 29.5961 26.7522 28.2833 25.4394C26.9705 24.1267 25.1901 23.3892 23.3336 23.3892H18.6669C16.8104 23.3892 15.0299 24.1267 13.7171 25.4394C12.4044 26.7522 11.6669 28.5327 11.6669 30.3892V42.0558H7.00022C6.38138 42.0558 5.78789 41.81 5.35031 41.3724C4.91272 40.9348 4.66689 40.3413 4.66689 39.7225V19.3058C4.66731 18.9745 4.73827 18.6471 4.87506 18.3454C5.01185 18.0437 5.21133 17.7745 5.46022 17.5558L19.4602 5.30584C19.886 4.93176 20.4334 4.72546 21.0002 4.72546C21.567 4.72546 22.1144 4.93176 22.5402 5.30584L36.5402 17.5558C36.7891 17.7745 36.9886 18.0437 37.1254 18.3454C37.2622 18.6471 37.3331 18.9745 37.3336 19.3058V39.7225Z" fill="white"/>
</svg>
