<svg width="56" height="56" viewBox="0 0 56 56" fill="none" xmlns="http://www.w3.org/2000/svg">
<g clip-path="url(#clip0_58_309)">
<path d="M53.6667 44.3332H44.17C43.5512 44.3332 42.9577 44.0873 42.5201 43.6498C42.0825 43.2122 41.8367 42.6187 41.8367 41.9998V34.9998H14V41.9998C14 42.6187 13.7542 43.2122 13.3166 43.6498C12.879 44.0873 12.2855 44.3332 11.6667 44.3332H2.33333C1.71449 44.3332 1.121 44.0873 0.683417 43.6498C0.245833 43.2122 0 42.6187 0 41.9998V18.6665C0 16.81 0.737498 15.0295 2.05025 13.7168C3.36301 12.404 5.14348 11.6665 7 11.6665H49C50.8565 11.6665 52.637 12.404 53.9497 13.7168C55.2625 15.0295 56 16.81 56 18.6665V41.9998C56 42.6187 55.7542 43.2122 55.3166 43.6498C54.879 44.0873 54.2855 44.3332 53.6667 44.3332ZM46.5033 39.6665H51.3333V18.6665C51.3368 18.3591 51.2788 18.0542 51.1627 17.7695C51.0467 17.4849 50.8749 17.2263 50.6576 17.0089C50.4402 16.7916 50.1816 16.6198 49.897 16.5038C49.6123 16.3877 49.3074 16.3297 49 16.3332H7C6.69263 16.3297 6.38767 16.3877 6.10302 16.5038C5.81837 16.6198 5.55978 16.7916 5.34242 17.0089C5.12506 17.2263 4.95332 17.4849 4.83728 17.7695C4.72123 18.0542 4.66323 18.3591 4.66667 18.6665V39.6665H9.33333V32.6665C9.33333 32.0477 9.57917 31.4542 10.0168 31.0166C10.4543 30.579 11.0478 30.3332 11.6667 30.3332H44.17C44.7888 30.3332 45.3823 30.579 45.8199 31.0166C46.2575 31.4542 46.5033 32.0477 46.5033 32.6665V39.6665Z" fill="white"/>
<path d="M44.1772 16.3333H11.6668C11.048 16.3333 10.4545 16.0875 10.0169 15.6499C9.57933 15.2123 9.3335 14.6188 9.3335 14V2.33333C9.3335 1.71449 9.57933 1.121 10.0169 0.683417C10.4545 0.245833 11.048 0 11.6668 0L44.1772 0C44.796 0 45.3895 0.245833 45.8271 0.683417C46.2647 1.121 46.5105 1.71449 46.5105 2.33333V14C46.5105 14.6188 46.2647 15.2123 45.8271 15.6499C45.3895 16.0875 44.796 16.3333 44.1772 16.3333ZM14.0002 11.6667H41.8438V4.66667H14.0002V11.6667ZM39.7438 56H16.1002C14.3055 56 12.5844 55.2871 11.3154 54.0181C10.0464 52.7491 9.3335 51.028 9.3335 49.2333V32.6667C9.3335 32.0478 9.57933 31.4543 10.0169 31.0168C10.4545 30.5792 11.048 30.3333 11.6668 30.3333H44.1702C44.789 30.3333 45.3825 30.5792 45.8201 31.0168C46.2577 31.4543 46.5035 32.0478 46.5035 32.6667V49.2333C46.5035 51.0268 45.7915 52.7468 44.5241 54.0156C43.2566 55.2844 41.5373 55.9981 39.7438 56ZM14.0002 35V49.2333C14.0002 49.7903 14.2214 50.3244 14.6152 50.7183C15.0091 51.1121 15.5432 51.3333 16.1002 51.3333H39.7438C40.3008 51.3333 40.8349 51.1121 41.2288 50.7183C41.6226 50.3244 41.8438 49.7903 41.8438 49.2333V35H14.0002ZM46.6668 23.3333H44.3335C43.7147 23.3333 43.1212 23.0875 42.6836 22.6499C42.246 22.2123 42.0002 21.6188 42.0002 21C42.0002 20.3812 42.246 19.7877 42.6836 19.3501C43.1212 18.9125 43.7147 18.6667 44.3335 18.6667H46.6668C47.2857 18.6667 47.8792 18.9125 48.3167 19.3501C48.7543 19.7877 49.0002 20.3812 49.0002 21C49.0002 21.6188 48.7543 22.2123 48.3167 22.6499C47.8792 23.0875 47.2857 23.3333 46.6668 23.3333Z" fill="white"/>
<path d="M34.9998 42.0002H20.9998C20.381 42.0002 19.7875 41.7543 19.3499 41.3167C18.9123 40.8792 18.6665 40.2857 18.6665 39.6668C18.6665 39.048 18.9123 38.4545 19.3499 38.0169C19.7875 37.5793 20.381 37.3335 20.9998 37.3335H34.9998C35.6187 37.3335 36.2122 37.5793 36.6497 38.0169C37.0873 38.4545 37.3332 39.048 37.3332 39.6668C37.3332 40.2857 37.0873 40.8792 36.6497 41.3167C36.2122 41.7543 35.6187 42.0002 34.9998 42.0002ZM27.9998 49.0002H20.9998C20.381 49.0002 19.7875 48.7543 19.3499 48.3167C18.9123 47.8792 18.6665 47.2857 18.6665 46.6668C18.6665 46.048 18.9123 45.4545 19.3499 45.0169C19.7875 44.5793 20.381 44.3335 20.9998 44.3335H27.9998C28.6187 44.3335 29.2122 44.5793 29.6498 45.0169C30.0873 45.4545 30.3332 46.048 30.3332 46.6668C30.3332 47.2857 30.0873 47.8792 29.6498 48.3167C29.2122 48.7543 28.6187 49.0002 27.9998 49.0002Z" fill="white"/>
</g>
<defs>
<clipPath id="clip0_58_309">
<rect width="56" height="56" fill="white"/>
</clipPath>
</defs>
</svg>
