<svg width="52" height="38" viewBox="0 0 52 38" fill="none" xmlns="http://www.w3.org/2000/svg">
<path d="M44.3333 0H7C5.14348 0 3.36301 0.737498 2.05025 2.05025C0.737498 3.36301 0 5.14348 0 7V30.3333C0 32.1898 0.737498 33.9703 2.05025 35.2831C3.36301 36.5958 5.14348 37.3333 7 37.3333H44.3333C46.1898 37.3333 47.9703 36.5958 49.2831 35.2831C50.5958 33.9703 51.3333 32.1898 51.3333 30.3333V7C51.3333 5.14348 50.5958 3.36301 49.2831 2.05025C47.9703 0.737498 46.1898 0 44.3333 0ZM46.6667 29.75L35.2333 19.4833L46.6667 11.48V29.75ZM4.66667 11.48L16.1 19.4833L4.66667 29.75V11.48ZM20.02 22.2367L24.3367 25.2467C24.7273 25.5176 25.1913 25.6628 25.6667 25.6628C26.142 25.6628 26.6061 25.5176 26.9967 25.2467L31.3133 22.2367L42.98 32.6667H8.4L20.02 22.2367ZM7 4.66667H44.3333C44.7667 4.67014 45.1905 4.79422 45.5573 5.02501C45.9241 5.2558 46.2193 5.58417 46.41 5.97333L25.6667 20.4867L4.92333 5.97333C5.114 5.58417 5.40927 5.2558 5.77605 5.02501C6.14284 4.79422 6.56666 4.67014 7 4.66667Z" fill="white"/>
</svg>
