<svg width="52" height="47" viewBox="0 0 52 47" fill="none" xmlns="http://www.w3.org/2000/svg">
<path d="M44.3333 0H21C19.1435 0 17.363 0.737498 16.0503 2.05025C14.7375 3.36301 14 5.14349 14 7V11.6667H7C5.14349 11.6667 3.36301 12.4042 2.05025 13.7169C0.737499 15.0297 9.62437e-07 16.8102 9.62437e-07 18.6667V32.6667C-0.00075824 34.1149 0.447663 35.5276 1.28347 36.7103C2.11927 37.893 3.3013 38.7873 4.66667 39.27V44.3333C4.66738 44.7468 4.77794 45.1526 4.98704 45.5093C5.19613 45.866 5.49625 46.1607 5.85667 46.3633C6.2054 46.561 6.59916 46.6654 7 46.6667C7.4188 46.6665 7.82984 46.5537 8.19 46.34L19.32 39.6667H30.3333C32.1898 39.6667 33.9703 38.9292 35.2831 37.6164C36.5958 36.3037 37.3333 34.5232 37.3333 32.6667V31.1967L43.1433 34.6733C43.5035 34.887 43.9145 34.9999 44.3333 35C44.7342 34.9988 45.1279 34.8943 45.4767 34.6967C45.8371 34.4941 46.1372 34.1993 46.3463 33.8427C46.5554 33.486 46.666 33.0801 46.6667 32.6667V27.6033C48.032 27.1206 49.2141 26.2263 50.0499 25.0436C50.8857 23.861 51.3341 22.4482 51.3333 21V7C51.3333 5.14349 50.5958 3.36301 49.2831 2.05025C47.9703 0.737498 46.1898 0 44.3333 0ZM32.6667 32.6667C32.6667 33.2855 32.4208 33.879 31.9832 34.3166C31.5457 34.7542 30.9522 35 30.3333 35H18.6667C18.2479 35.0001 17.8368 35.113 17.4767 35.3267L9.33333 40.2033V37.3333C9.33333 36.7145 9.0875 36.121 8.64992 35.6834C8.21233 35.2458 7.61884 35 7 35C6.38116 35 5.78767 34.7542 5.35008 34.3166C4.9125 33.879 4.66667 33.2855 4.66667 32.6667V18.6667C4.66667 18.0478 4.9125 17.4543 5.35008 17.0168C5.78767 16.5792 6.38116 16.3333 7 16.3333H14V21C14 22.8565 14.7375 24.637 16.0503 25.9498C17.363 27.2625 19.1435 28 21 28H32.0133L32.6667 28.3967V32.6667ZM46.6667 21C46.6667 21.6188 46.4208 22.2123 45.9832 22.6499C45.5457 23.0875 44.9522 23.3333 44.3333 23.3333C43.7145 23.3333 43.121 23.5792 42.6834 24.0168C42.2458 24.4543 42 25.0478 42 25.6667V28.5367L33.8567 23.66C33.4965 23.4463 33.0855 23.3335 32.6667 23.3333H21C20.3812 23.3333 19.7877 23.0875 19.3501 22.6499C18.9125 22.2123 18.6667 21.6188 18.6667 21V7C18.6667 6.38116 18.9125 5.78767 19.3501 5.35008C19.7877 4.9125 20.3812 4.66667 21 4.66667H44.3333C44.9522 4.66667 45.5457 4.9125 45.9832 5.35008C46.4208 5.78767 46.6667 6.38116 46.6667 7V21Z" fill="white"/>
</svg>
