<svg width="48" height="54" viewBox="0 0 48 54" fill="none" xmlns="http://www.w3.org/2000/svg">
    <rect y="3.00049" width="48" height="48" rx="16" fill="#FB7D5B"/>
    <path d="M15.328 17.824C14.248 17.824 13.36 17.512 12.664 16.888C11.992 16.24 11.656 15.448 11.656 14.512C11.656 13.552 11.992 12.76 12.664 12.136C13.36 11.488 14.248 11.164 15.328 11.164C16.384 11.164 17.248 11.488 17.92 12.136C18.616 12.76 18.964 13.552 18.964 14.512C18.964 15.448 18.616 16.24 17.92 16.888C17.248 17.512 16.384 17.824 15.328 17.824ZM18.388 19.912V40H12.232V19.912H18.388ZM41.1012 30.172H34.8372V36.58H29.0052V30.172H22.7412V24.664H29.0052V18.22H34.8372V24.664H41.1012V30.172Z" fill="white"/>
</svg>
