<svg width="110" height="54" viewBox="0 0 110 54" fill="none" xmlns="http://www.w3.org/2000/svg">
<rect x="0.146118" width="94.569" height="54" rx="16" fill="#5145CD"/>
<path d="M23.964 35.536H14.532L13.02 40H6.576L15.72 14.728H22.848L31.992 40H25.476L23.964 35.536ZM22.38 30.784L19.248 21.532L16.152 30.784H22.38ZM40.931 19.66V24.772H49.175V29.524H40.931V35.068H50.255V40H34.775V14.728H50.255V19.66H40.931ZM60.4075 19.66V24.772H68.6515V29.524H60.4075V35.068H69.7315V40H54.2515V14.728H69.7315V19.66H60.4075ZM91.9801 30.172H85.7161V36.58H79.8841V30.172H73.6201V24.664H79.8841V18.22H85.7161V24.664H91.9801V30.172Z" fill="white"/>
</svg>
