<svg width="20" height="12" viewBox="0 0 20 12" fill="none" xmlns="http://www.w3.org/2000/svg">
<path d="M16.9998 5.00016H2.99984C2.381 5.00016 1.78751 4.75433 1.34992 4.31675C0.912337 3.87916 0.666504 3.28567 0.666504 2.66683C0.666504 2.04799 0.912337 1.4545 1.34992 1.01691C1.78751 0.579327 2.381 0.333496 2.99984 0.333496H16.9998C17.6187 0.333496 18.2122 0.579327 18.6497 1.01691C19.0873 1.4545 19.3332 2.04799 19.3332 2.66683C19.3332 3.28567 19.0873 3.87916 18.6497 4.31675C18.2122 4.75433 17.6187 5.00016 16.9998 5.00016ZM9.99984 12.0002H2.99984C2.381 12.0002 1.78751 11.7543 1.34992 11.3167C0.912337 10.8792 0.666504 10.2857 0.666504 9.66683C0.666504 9.04799 0.912337 8.45449 1.34992 8.01691C1.78751 7.57933 2.381 7.33349 2.99984 7.33349H9.99984C10.6187 7.33349 11.2122 7.57933 11.6498 8.01691C12.0873 8.45449 12.3332 9.04799 12.3332 9.66683C12.3332 10.2857 12.0873 10.8792 11.6498 11.3167C11.2122 11.7543 10.6187 12.0002 9.99984 12.0002Z" fill="#4D44B5"/>
</svg>
