<svg width="52" height="48" viewBox="0 0 52 48" fill="none" xmlns="http://www.w3.org/2000/svg">
<path d="M44.6668 0.666504H21.3335C19.477 0.666504 17.6965 1.404 16.3837 2.71676C15.071 4.02951 14.3335 5.80999 14.3335 7.6665V12.3332H7.3335C5.47698 12.3332 3.6965 13.0707 2.38375 14.3834C1.07099 15.6962 0.333497 17.4767 0.333497 19.3332V33.3332C0.332738 34.7814 0.781159 36.1941 1.61696 37.3768C2.45276 38.5595 3.6348 39.4538 5.00016 39.9365V44.9998C5.00088 45.4133 5.11144 45.8191 5.32053 46.1758C5.52963 46.5325 5.82974 46.8272 6.19016 47.0298C6.53889 47.2275 6.93266 47.3319 7.3335 47.3332C7.75229 47.333 8.16333 47.2202 8.5235 47.0065L19.6535 40.3332H30.6668C32.5233 40.3332 34.3038 39.5957 35.6166 38.2829C36.9293 36.9702 37.6668 35.1897 37.6668 33.3332V31.8632L43.4768 35.3398C43.837 35.5536 44.248 35.6664 44.6668 35.6665C45.0677 35.6653 45.4614 35.5608 45.8102 35.3632C46.1706 35.1606 46.4707 34.8659 46.6798 34.5092C46.8889 34.1525 46.9994 33.7466 47.0002 33.3332V28.2698C48.3655 27.7871 49.5476 26.8928 50.3834 25.7101C51.2192 24.5275 51.6676 23.1147 51.6668 21.6665V7.6665C51.6668 5.80999 50.9293 4.02951 49.6166 2.71676C48.3038 1.404 46.5233 0.666504 44.6668 0.666504ZM33.0002 33.3332C33.0002 33.952 32.7543 34.5455 32.3167 34.9831C31.8792 35.4207 31.2857 35.6665 30.6668 35.6665H19.0002C18.5814 35.6666 18.1703 35.7795 17.8102 35.9932L9.66683 40.8698V37.9998C9.66683 37.381 9.421 36.7875 8.98341 36.3499C8.54583 35.9123 7.95234 35.6665 7.3335 35.6665C6.71466 35.6665 6.12117 35.4207 5.68358 34.9831C5.246 34.5455 5.00016 33.952 5.00016 33.3332V19.3332C5.00016 18.7143 5.246 18.1208 5.68358 17.6833C6.12117 17.2457 6.71466 16.9998 7.3335 16.9998H14.3335V21.6665C14.3335 23.523 15.071 25.3035 16.3837 26.6163C17.6965 27.929 19.477 28.6665 21.3335 28.6665H32.3468L33.0002 29.0632V33.3332ZM47.0002 21.6665C47.0002 22.2853 46.7543 22.8788 46.3167 23.3164C45.8792 23.754 45.2857 23.9998 44.6668 23.9998C44.048 23.9998 43.4545 24.2457 43.0169 24.6833C42.5793 25.1208 42.3335 25.7143 42.3335 26.3332V29.2032L34.1902 24.3265C33.83 24.1128 33.419 24 33.0002 23.9998H21.3335C20.7147 23.9998 20.1212 23.754 19.6836 23.3164C19.246 22.8788 19.0002 22.2853 19.0002 21.6665V7.6665C19.0002 7.04767 19.246 6.45417 19.6836 6.01659C20.1212 5.579 20.7147 5.33317 21.3335 5.33317H44.6668C45.2857 5.33317 45.8792 5.579 46.3167 6.01659C46.7543 6.45417 47.0002 7.04767 47.0002 7.6665V21.6665Z" fill="#4D44B5"/>
</svg>
